<svg width="15" height="15" viewBox="0 0 15 15" fill="none" xmlns="http://www.w3.org/2000/svg">
<g clip-path="url(#clip0_1_293)">
<path d="M9.375 13.75V11.25C9.46195 10.4671 9.23746 9.68133 8.75 9.0625C10.625 9.0625 12.5 7.8125 12.5 5.625C12.55 4.84375 12.3313 4.075 11.875 3.4375C12.05 2.71875 12.05 1.96875 11.875 1.25C11.875 1.25 11.25 1.25 10 2.1875C8.35 1.875 6.65 1.875 5 2.1875C3.75 1.25 3.125 1.25 3.125 1.25C2.9375 1.96875 2.9375 2.71875 3.125 3.4375C2.66992 4.07243 2.44905 4.84549 2.5 5.625C2.5 7.8125 4.375 9.0625 6.25 9.0625C6.00625 9.36875 5.825 9.71875 5.71875 10.0937C5.6125 10.4687 5.58125 10.8625 5.625 11.25V13.75" stroke="white" stroke-opacity="0.6" stroke-width="1.25" stroke-linecap="round" stroke-linejoin="round"/>
<path d="M5.625 11.25C2.80625 12.5 2.5 10 1.25 10" stroke="white" stroke-opacity="0.6" stroke-width="1.25" stroke-linecap="round" stroke-linejoin="round"/>
</g>
<defs>
<clipPath id="clip0_1_293">
<rect width="15" height="15" fill="white"/>
</clipPath>
</defs>
</svg>
